<svg id="Layer_1" data-name="Layer 1" xmlns="http://www.w3.org/2000/svg" viewBox="0 0 50 50"><defs><style>.cls-1{fill:#a0a0a0;}</style></defs><title>3rd-sec-icon7</title><path class="cls-1" d="M45.57,39.16V37.32a1.07,1.07,0,0,0-.91-1V30.93A12.79,12.79,0,0,0,31.88,18.16H29v-.61a1.07,1.07,0,0,0-1.07-1.06h-3.2a1.06,1.06,0,0,0-1,.86H21.87a1.05,1.05,0,0,0-1,.81H17.93a3.91,3.91,0,0,1-3.9-3.9v-.48a1.05,1.05,0,0,0,.89-1V10.9a1.05,1.05,0,0,0,.86-1V6.66A1.07,1.07,0,0,0,14.72,5.6H14V3.18a1.12,1.12,0,0,0-1.12-1.12H6.28A1.12,1.12,0,0,0,5.16,3.18V5.6H4.63A1.06,1.06,0,0,0,3.57,6.66v3.2a1.05,1.05,0,0,0,.86,1v1.84a1,1,0,0,0,.73,1v.52a12.65,12.65,0,0,0,2.67,7.82.67.67,0,0,0,.53.26.7.7,0,0,0,.41-.14.68.68,0,0,0,.12-.95,11.31,11.31,0,0,1-2.39-7V13.8h6.18v.46a5.25,5.25,0,0,0,5.25,5.24h2.88v6.19H17.93a11.46,11.46,0,0,1-7.46-2.77.67.67,0,0,0-.87,1A12.77,12.77,0,0,0,17.93,27h2.91a1.06,1.06,0,0,0,1,.81H23.7a1.06,1.06,0,0,0,1,.86h3.2A1.07,1.07,0,0,0,29,27.64V27h2.87a3.91,3.91,0,0,1,3.9,3.9v.21a.68.68,0,0,0,1.35,0v-.21a5.25,5.25,0,0,0-5.25-5.24H29V19.5h2.87A11.45,11.45,0,0,1,43.31,30.93v5.33H37.13V33.83a.68.68,0,0,0-1.35,0v2.5a1,1,0,0,0-.7,1v1.84a1.05,1.05,0,0,0-.86,1v3.2a1.06,1.06,0,0,0,1.06,1.06h.5v2.36a1.12,1.12,0,0,0,1.12,1.12h6.64a1.12,1.12,0,0,0,1.12-1.12V44.46h.71a1.06,1.06,0,0,0,1.06-1.06V40.2a1.05,1.05,0,0,0-.86-1ZM5.77,12.46V10.92h7.8v1.54ZM6.5,3.4h6.18V5.6H6.5ZM4.91,6.94h9.52V9.58H4.91ZM22.15,18.69h1.53v7.8H22.15Zm5.51,8.66H25V17.83h2.63ZM36.43,37.6h7.8v1.54h-7.8Zm6.88,9H37.13V44.46h6.18Zm1.78-3.48H35.57V40.48h9.52Zm0,0"/></svg>