<svg id="Layer_1" data-name="Layer 1" xmlns="http://www.w3.org/2000/svg" viewBox="0 0 50 50"><defs><style>.cls-1{fill:#a0a0a0;}</style></defs><title>3rd-sec-icon3</title><path class="cls-1" d="M47.28,30.26V28.2a.7.7,0,1,0-1.39,0v2.06H39.24V24.09a1.69,1.69,0,0,0-1.69-1.69h-3V15.74h5.86a5.54,5.54,0,0,1,5.53,5.53v7.39a.7.7,0,0,0,1.39,0V21.27a6.92,6.92,0,0,0-6.92-6.91h-6A3.48,3.48,0,0,0,31,12h-2.3V9.35a2.08,2.08,0,0,0,1.93-1.6h6.95A2.44,2.44,0,0,0,40,5.34a2.41,2.41,0,0,0-2.4-2.4H30.67a2.08,2.08,0,0,0-2-1.61H24.13a2.09,2.09,0,0,0-2,1.61h-7a2.41,2.41,0,0,0,0,4.81h7A2.08,2.08,0,0,0,24,9.35V12H21.74a3.48,3.48,0,0,0-3.3,2.38H13.23a2.08,2.08,0,0,0-3.92,0H2a.69.69,0,1,0,0,1.38H9.19V22.4H2a.7.7,0,1,0,0,1.39H9.31a2.08,2.08,0,0,0,3.92,0h5.21a3.48,3.48,0,0,0,3.3,2.38h8a.7.7,0,0,0,0-1.39h-8A2.08,2.08,0,0,1,19.68,23h0c0-.12,0-7.64,0-7.88h0a2.09,2.09,0,0,1,2.06-1.77H31a2.08,2.08,0,0,1,2.05,1.77h0c.11.92.1,7.07,0,7.88h0A2.07,2.07,0,0,1,31,24.78h-4.9a.7.7,0,0,0,0,1.39H31a3.48,3.48,0,0,0,3.29-2.38h3.22a.29.29,0,0,1,.3.3v6.17a1.4,1.4,0,0,0-1.39,1.4V33a1.4,1.4,0,0,0,1.4,1.4h9.41a1.4,1.4,0,0,0,1.4-1.4V31.66a1.4,1.4,0,0,0-1.39-1.4ZM30.73,4.33h6.89a1,1,0,0,1,1,1,1,1,0,0,1-1,1H30.73Zm-8.68,2h-6.9a1,1,0,0,1,0-2h6.9ZM12,23.09a.69.69,0,1,1-1.38,0v-8a.69.69,0,1,1,1.38,0Zm6.31-.69H13.35V15.74h4.92ZM27.35,12H25.42V9.35h1.93ZM24.13,8a.7.7,0,0,1-.7-.7V3.41a.7.7,0,0,1,.7-.69h4.52a.69.69,0,0,1,.69.69V7.27a.69.69,0,0,1-.69.7ZM47.28,33H37.85V31.66a0,0,0,0,1,0,0h9.41s0,0,0,0Zm-4,3.8a1,1,0,0,0-1.37,0c-1.31,1.29-4.35,4.54-4.35,6.81a5,5,0,1,0,10.07,0c0-2.27-3-5.52-4.35-6.81Zm-.68,10.46a3.65,3.65,0,0,1-3.65-3.65c0-.86,1-2.81,3.65-5.53,2.68,2.72,3.64,4.67,3.64,5.53a3.65,3.65,0,0,1-3.64,3.65Zm0,0"/></svg>