<svg id="Layer_1" data-name="Layer 1" xmlns="http://www.w3.org/2000/svg" viewBox="0 0 50 50"><defs><style>.cls-1{fill:#a0a0a0;}</style></defs><title>3rd-sec-icon7</title><path class="cls-1" d="M34.79,33.42a.63.63,0,0,0-.38.81.64.64,0,0,0,.82.38,6.44,6.44,0,0,1,2.25-.36,6.32,6.32,0,0,1,3.82,1.18,7.64,7.64,0,0,0,4.49,1.37.64.64,0,0,0,0-1.28A6.39,6.39,0,0,1,42,34.35a8.18,8.18,0,0,0-7.18-.93Zm0,0"/><path class="cls-1" d="M4.21,34.25A6.32,6.32,0,0,1,8,35.43a7.62,7.62,0,0,0,4.49,1.37,7.55,7.55,0,0,0,2.69-.44.64.64,0,0,0,.38-.82.63.63,0,0,0-.82-.37,6.45,6.45,0,0,1-2.25.35A6.39,6.39,0,0,1,8.7,34.35,7.57,7.57,0,0,0,4.21,33a.64.64,0,1,0,0,1.27Zm0,0"/><path class="cls-1" d="M15.21,26.45a.62.62,0,0,0,.39-.14.63.63,0,0,0,.11-.89A11.8,11.8,0,0,1,32.1,8.72a.64.64,0,1,0,.77-1A13.07,13.07,0,0,0,14.71,26.2a.63.63,0,0,0,.5.25Zm0,0"/><path class="cls-1" d="M36.8,18.14a11.71,11.71,0,0,1-2.51,7.28.63.63,0,0,0,.11.89.62.62,0,0,0,.39.14.64.64,0,0,0,.5-.25,13.07,13.07,0,0,0-.72-17,.64.64,0,0,0-.9,0,.63.63,0,0,0,0,.9,11.79,11.79,0,0,1,3.16,8Zm0,0"/><path class="cls-1" d="M34.13,19.85a9.71,9.71,0,0,0,.16-1.71,9.29,9.29,0,0,0-18.58,0,9.71,9.71,0,0,0,.16,1.71.64.64,0,0,0,.74.51.63.63,0,0,0,.51-.74,8,8,0,1,1,15.76,0,.63.63,0,0,0,.51.74h.11a.63.63,0,0,0,.63-.52Zm0,0"/><path class="cls-1" d="M33,30.54a.64.64,0,0,0-.64.63v9.59a.64.64,0,0,0,1.28,0V31.17a.64.64,0,0,0-.64-.63Zm0,0"/><path class="cls-1" d="M33.65,23a4.11,4.11,0,0,0-4.11-4.1H20.46A4.11,4.11,0,0,0,16.35,23V40.76a.64.64,0,1,0,1.28,0V23a2.83,2.83,0,0,1,2.83-2.83h9.08A2.83,2.83,0,0,1,32.37,23v6.08a.64.64,0,1,0,1.28,0Zm0,0"/><path class="cls-1" d="M45.79,41.11a7.65,7.65,0,0,0-4.49,1.36,6.79,6.79,0,0,1-7.65,0,7.62,7.62,0,0,0-4.49-1.36,7.6,7.6,0,0,0-4.49,1.36,6.35,6.35,0,0,1-3.83,1.18A6.32,6.32,0,0,1,17,42.47a7.66,7.66,0,0,0-4.5-1.36A7.62,7.62,0,0,0,8,42.47a6.32,6.32,0,0,1-3.82,1.18.64.64,0,0,0-.64.64.63.63,0,0,0,.64.63A7.65,7.65,0,0,0,8.7,43.56a6.32,6.32,0,0,1,3.82-1.18,6.35,6.35,0,0,1,3.83,1.18,7.62,7.62,0,0,0,4.49,1.36,7.6,7.6,0,0,0,4.49-1.36,6.81,6.81,0,0,1,7.66,0,8.09,8.09,0,0,0,9,0,6.32,6.32,0,0,1,3.82-1.18.64.64,0,0,0,.64-.64.63.63,0,0,0-.64-.63Zm0,0"/><path class="cls-1" d="M30,37.74a.64.64,0,0,0-.72-.26.64.64,0,1,0,.72.26Zm0,0"/><path class="cls-1" d="M30.1,23.83a.64.64,0,1,0-1.28,0V36.16a.64.64,0,0,0,1.28,0Zm0,0"/><path class="cls-1" d="M22.89,41.4a.64.64,0,0,0,.63-.64V33.21a.64.64,0,1,0-1.27,0v7.55a.64.64,0,0,0,.64.64Zm0,0"/><path class="cls-1" d="M23.52,25.87a.64.64,0,1,0-1.27,0v5.22a.64.64,0,0,0,1.27,0Zm0,0"/><path class="cls-1" d="M22.3,24.07a.63.63,0,1,0,.22-.76.63.63,0,0,0-.22.76Zm0,0"/><path class="cls-1" d="M19.15,23.83V35.16a.64.64,0,1,0,1.27,0V23.83a.64.64,0,1,0-1.27,0Zm0,0"/></svg>