<svg id="Layer_1" data-name="Layer 1" xmlns="http://www.w3.org/2000/svg" viewBox="0 0 50 50"><defs><style>.cls-1{fill:#a0a0a0;}</style></defs><title>3rd-sec-icon8</title><path class="cls-1" d="M20.47,5.29a2.85,2.85,0,1,0,2.85,2.85A2.85,2.85,0,0,0,20.47,5.29Zm0,4.35A1.5,1.5,0,1,1,22,8.14,1.5,1.5,0,0,1,20.47,9.64Z"/><path class="cls-1" d="M12.77,5.29a2.85,2.85,0,1,0,2.85,2.85A2.85,2.85,0,0,0,12.77,5.29Zm0,4.35a1.5,1.5,0,1,1,1.5-1.5A1.5,1.5,0,0,1,12.77,9.64Z"/><path class="cls-1" d="M37.45,5.29H29.72a1.54,1.54,0,0,0-1.53,1.54V9.45A1.54,1.54,0,0,0,29.72,11h7.73A1.54,1.54,0,0,0,39,9.45V6.83A1.54,1.54,0,0,0,37.45,5.29Zm.19,4.16a.18.18,0,0,1-.19.19H29.72a.19.19,0,0,1-.19-.19V6.83a.19.19,0,0,1,.19-.19h7.73a.18.18,0,0,1,.19.19Z"/><path class="cls-1" d="M25,15.83a12.15,12.15,0,0,0-7.54,2.57.67.67,0,0,0-.13.94.68.68,0,0,0,1,.12A10.88,10.88,0,0,1,25,17.17a11,11,0,1,1-8.54,4.06.67.67,0,1,0-1-.85A12.35,12.35,0,1,0,25,15.83Z"/><path class="cls-1" d="M44.56,42.73V7.22A5.16,5.16,0,0,0,39.4,2.06H10.6A5.16,5.16,0,0,0,5.44,7.22V42.78a5.16,5.16,0,0,0,5.16,5.16H39.4a5.16,5.16,0,0,0,5.16-5.09ZM6.78,7.22A3.83,3.83,0,0,1,10.6,3.4H39.4a3.83,3.83,0,0,1,3.82,3.82v5.66H6.78ZM39.4,46.6H10.6a3.82,3.82,0,0,1-3.76-3.15H35a.67.67,0,1,0,0-1.34H6.78V14.22H43.22V42.11H37.65a.67.67,0,0,0,0,1.34h5.51A3.83,3.83,0,0,1,39.4,46.6Z"/><path class="cls-1" d="M15.86,29.51h0a9.23,9.23,0,0,0,18.27,0h0a8.33,8.33,0,0,0,.1-1.33,9.23,9.23,0,1,0-18.46,0A9.69,9.69,0,0,0,15.86,29.51Zm14.32,4.61a7.88,7.88,0,0,1-12.91-4.39l.41-.28a2,2,0,0,1,2.32,0,3.48,3.48,0,0,0,3.84,0,2.08,2.08,0,0,1,2.32,0,3.46,3.46,0,0,0,3.84,0,2,2,0,0,1,2.32,0l.41.28A7.8,7.8,0,0,1,30.18,34.12ZM25,20.29a7.9,7.9,0,0,1,7.89,7.89v0h0a3.42,3.42,0,0,0-2.72-.32,3.48,3.48,0,0,0-.91.44,2,2,0,0,1-2.32,0,3.42,3.42,0,0,0-3.84,0,2,2,0,0,1-2.32,0,3.45,3.45,0,0,0-1.92-.59,3.33,3.33,0,0,0-1.71.47h0v0A7.9,7.9,0,0,1,25,20.29Z"/></svg>