<svg id="Layer_1" data-name="Layer 1" xmlns="http://www.w3.org/2000/svg" viewBox="0 0 50 50"><defs><style>.cls-1{fill:#a0a0a0;}</style></defs><title>3rd-sec-icon6</title><path class="cls-1" d="M25,21.93a6.12,6.12,0,1,0-6.12-6.12A6.12,6.12,0,0,0,25,21.93Zm0-10.71a4.59,4.59,0,1,1-4.59,4.59A4.59,4.59,0,0,1,25,11.22Zm0,0"/><path class="cls-1" d="M25,16.58a.78.78,0,0,0,.64-.34l1.53-2.3a.78.78,0,0,0,0-.77.75.75,0,0,0-.64-.42.76.76,0,0,0-.69.34l-1.53,2.3A.77.77,0,0,0,25,16.58Zm0,0"/><path class="cls-1" d="M28.83,47.94h3.06a1.54,1.54,0,0,0,1.53-1.53v-2c1.67-.19,3.35-.43,5-.75a2.29,2.29,0,0,0,1.86-2.26V5.56A2.3,2.3,0,0,0,38.44,3.3c-1.62-.31-3.25-.54-4.88-.73l-.14,0h0a71.18,71.18,0,0,0-16.76,0h0l-.14,0c-1.63.19-3.26.42-4.88.73A2.3,2.3,0,0,0,9.7,5.56v35.8a2.29,2.29,0,0,0,1.86,2.26c1.67.32,3.35.56,5,.75v2a1.54,1.54,0,0,0,1.53,1.53h3.06a1.52,1.52,0,0,0,1.53-1.53V44.84c.77,0,1.54,0,2.3,0s1.53,0,2.3,0v1.57a1.52,1.52,0,0,0,1.53,1.53Zm3.06-1.53H28.83V44.78c1-.06,2-.13,3.06-.23ZM25,3.57A69.77,69.77,0,0,1,32.65,4V15.81a7.65,7.65,0,1,1-15.3,0V4A69.77,69.77,0,0,1,25,3.57ZM21.17,46.41H18.11V44.55c1,.1,2,.17,3.06.23ZM22,43.29h0a71.36,71.36,0,0,1-10.09-1.17.76.76,0,0,1-.61-.76V5.56a.75.75,0,0,1,.61-.75c1.33-.25,2.65-.45,4-.63V15.81a9.18,9.18,0,0,0,18.36,0V4.18c1.33.18,2.65.37,4,.62a.77.77,0,0,1,.61.76v35.8a.76.76,0,0,1-.61.76h0a71.36,71.36,0,0,1-10.09,1.17h0c-2,.09-4.07.09-6.1,0Zm0,0"/><path class="cls-1" d="M30.36,31.88V28.82a1.54,1.54,0,0,0-1.53-1.53H21.17a1.54,1.54,0,0,0-1.53,1.53v3.06a1.54,1.54,0,0,0,1.53,1.53h7.66a1.54,1.54,0,0,0,1.53-1.53Zm-9.19-3.06h7.66v3.06H21.17Zm0,0"/><path class="cls-1" d="M13.52,25.76a.76.76,0,0,0-.76.76v.77a.77.77,0,0,0,1.53,0v-.77a.76.76,0,0,0-.77-.76Zm0,0"/><path class="cls-1" d="M13.52,29.58a.77.77,0,0,0-.76.77v9.18a.77.77,0,0,0,1.53,0V30.35a.77.77,0,0,0-.77-.77Zm0,0"/><path class="cls-1" d="M20.41,34.94H18.88a.77.77,0,1,0,0,1.53h1.53a.77.77,0,0,0,0-1.53Zm0,0"/><path class="cls-1" d="M20.41,38H18.88a.77.77,0,1,0,0,1.53h1.53a.77.77,0,0,0,0-1.53Zm0,0"/><path class="cls-1" d="M28.83,35.7a.76.76,0,0,0,.76.77h1.53a.77.77,0,1,0,0-1.53H29.59a.76.76,0,0,0-.76.76Zm0,0"/><path class="cls-1" d="M31.12,38H29.59a.77.77,0,0,0,0,1.53h1.53a.77.77,0,1,0,0-1.53Zm0,0"/></svg>