<svg id="Layer_1" data-name="Layer 1" xmlns="http://www.w3.org/2000/svg" viewBox="0 0 50 50"><defs><style>.cls-1{fill:#a0a0a0;}</style></defs><title>3rd-sec-icon2</title><path class="cls-1" d="M47.88,2.91H42.21A2.37,2.37,0,0,0,40,1.33H38.41a2.37,2.37,0,0,0-2.22,1.58H33.68A13.43,13.43,0,0,0,20.27,16.32v2.51a2.37,2.37,0,0,0-1.58,2.23v1.57a2.37,2.37,0,0,0,1.58,2.23v2.51a3.95,3.95,0,0,1-7.89,0V24.86A2.4,2.4,0,0,0,14,22.63V21.06a2.4,2.4,0,0,0-1.58-2.23V2.12a.8.8,0,0,0-.79-.79H3.7a.79.79,0,0,0-.79.79V18.83a2.4,2.4,0,0,0-1.58,2.23v1.57a2.4,2.4,0,0,0,1.58,2.23v2.51a13.41,13.41,0,0,0,26.82,0V24.86a2.37,2.37,0,0,0,1.58-2.23V21.06a2.37,2.37,0,0,0-1.58-2.23V16.32a3.94,3.94,0,0,1,3.95-3.94h2.51A2.37,2.37,0,0,0,38.41,14H40a2.37,2.37,0,0,0,2.22-1.58h5.67a.8.8,0,0,0,.79-.79V3.7a.79.79,0,0,0-.79-.79Zm-43.39,0H10.8V18.69H4.49ZM2.91,22.63V21.06a.79.79,0,0,1,.79-.79h7.89a.79.79,0,0,1,.79.79v1.57a.79.79,0,0,1-.79.79H3.7a.79.79,0,0,1-.79-.79Zm25.25,4.74a11.85,11.85,0,0,1-11,11.79v-.43l2.37-2.36,1,1,1.12-1.12-1-1,1-1L20.5,33.12l-3.39,3.39L15.3,34.7l-1.12,1.12L16,37.62l-.24.23a.83.83,0,0,0-.23.56v.75a11.84,11.84,0,0,1-11-11.79V25H10.8v2.37a5.52,5.52,0,1,0,11,0V25h6.32Zm1.57-4.74a.79.79,0,0,1-.79.79H21.06a.79.79,0,0,1-.79-.79V21.06a.79.79,0,0,1,.79-.79h7.88a.79.79,0,0,1,.79.79ZM36,10.8H33.68a5.52,5.52,0,0,0-5.52,5.52v2.37H21.84V16.32A11.86,11.86,0,0,1,33.68,4.49H36Zm4.74.79a.8.8,0,0,1-.79.79H38.41a.8.8,0,0,1-.79-.79V3.7a.79.79,0,0,1,.79-.79H40a.79.79,0,0,1,.79.79Zm6.31-.79H42.36V4.49h4.73Zm0,0"/><path class="cls-1" d="M17.25,42.7c-.52.74-1.72,2.59-1.72,3.6a2.37,2.37,0,0,0,4.74,0c0-1-1.2-2.86-1.72-3.6a.82.82,0,0,0-1.3,0Zm.65,4.39a.79.79,0,0,1-.79-.79,5.93,5.93,0,0,1,.79-1.69,5.93,5.93,0,0,1,.79,1.69.79.79,0,0,1-.79.79Zm0,0"/></svg>