<svg id="Layer_1" data-name="Layer 1" xmlns="http://www.w3.org/2000/svg" viewBox="0 0 50 50"><defs><style>.cls-1{fill:#a0a0a0;}</style></defs><title>3rd-sec-icon4</title><path class="cls-1" d="M48.6,45.89l-.62-2a3.61,3.61,0,0,0-3.46-2.55H40.59a.7.7,0,1,0,0,1.39h3.93a2.22,2.22,0,0,1,2.13,1.57l.63,2c0,.06.11.13-.19.26H2.91c0-.05-.15.06-.18-.26l.62-2a2.22,2.22,0,0,1,2.14-1.57H37.24a.7.7,0,0,0,0-1.39H20.91V38a2.2,2.2,0,0,0-2.59-2.07V31.47l3.36-1.56a.69.69,0,0,0-.58-1.26L18,30.09a2.83,2.83,0,0,0-2.5-1.51H12.57V11.39c0-.14,0-.29,0-.43H14.5c0,.14,0,.28,0,.43V26.06a.7.7,0,1,0,1.39,0V11.39a4.69,4.69,0,0,1,4.65-4.65h6.19A4.65,4.65,0,0,1,31,9.58L33.27,15A2.68,2.68,0,0,0,32,17.72l.59,3.41a2.7,2.7,0,0,0,3.63,2l4.92-1.92a2.72,2.72,0,0,0,1.27-4l-1.88-2.9a2.7,2.7,0,0,0-2.94-1.14L35.31,7.76a9.3,9.3,0,0,0-8.6-5.7H20.52a9.37,9.37,0,0,0-9.33,9.33V28.6a2.84,2.84,0,0,0-2.46,2.8v4.48A2.2,2.2,0,0,0,6.14,38v3.38A3.79,3.79,0,0,0,2,43.88l-.63,2a1.61,1.61,0,0,0,1.51,2H47.09a1.6,1.6,0,0,0,1.51-2ZM13.49,7.68l1.68.9a7.12,7.12,0,0,0-.41,1h-2a8,8,0,0,1,.71-1.89Zm5.56-2.15a5.67,5.67,0,0,0-1.11.4L17,4.29a8.13,8.13,0,0,1,2.1-.71ZM39.4,15.12l.47.73-2,.79a.69.69,0,0,0-.39.9c.2.27.35.54.9.39l2.27-.9.64,1a1.32,1.32,0,0,1-.62,1.91l-4.91,1.93a1.33,1.33,0,0,1-1.76-1l-.2-1.14,1.61-.64a.69.69,0,0,0-.51-1.29l-1.34.53-.16-.87A1.31,1.31,0,0,1,34.2,16l3.63-1.42a1.37,1.37,0,0,1,1.57.5ZM26.71,3.44A7.94,7.94,0,0,1,34,8.3l2.29,5.42-1.78.7L32.27,9a6,6,0,0,0-5.56-3.69H20.44V3.44h6.27ZM15.77,5l1,1.64a6.48,6.48,0,0,0-.8.77l-1.71-.92A8.25,8.25,0,0,1,15.77,5ZM10.12,31.4A1.43,1.43,0,0,1,11.55,30H15.5a1.43,1.43,0,0,1,1.23.7l-3.5,1.62a.7.7,0,0,0-.33.92.67.67,0,0,0,.63.41.65.65,0,0,0,.29-.07l3.12-1.44v3.77H10.12ZM7.53,38a.68.68,0,0,1,.68-.68H18.84a.68.68,0,0,1,.69.68v3.38h-12Zm0,0"/><path class="cls-1" d="M38.56,26.55c-1,0-2,1-2.73,2.89a12.8,12.8,0,0,0-.91,3.93,3.64,3.64,0,1,0,7.27,0,12.51,12.51,0,0,0-.91-3.93c-.77-1.91-1.68-2.89-2.72-2.89Zm0,9.07a2.25,2.25,0,0,1-2.25-2.25A11,11,0,0,1,37.12,30c.59-1.48,1.19-2,1.44-2s.84.54,1.43,2a11,11,0,0,1,.81,3.41,2.24,2.24,0,0,1-2.24,2.25Zm0,0"/></svg>