<svg id="Layer_1" data-name="Layer 1" xmlns="http://www.w3.org/2000/svg" viewBox="0 0 50 50"><defs><style>.cls-1{fill:#a0a0a0;}</style></defs><title>3rd-sec-icon1</title><path class="cls-1" d="M47.88,15.53H36a.79.79,0,0,0-.78-.79H30.52a.8.8,0,0,0-.79.79H27.37V13.17a.8.8,0,0,0,.79-.79V7.64a.79.79,0,0,0-.79-.78V2.12a.8.8,0,0,0-.79-.79H14a.79.79,0,0,0-.79.79V6.86a.78.78,0,0,0-.79.78v4.74a.79.79,0,0,0,.79.79v2.36H10.8a.79.79,0,0,0-.79-.79H5.28a.79.79,0,0,0-.79.79H2.12a.8.8,0,0,0-.79.79V28.94a.79.79,0,0,0,.79.79H4.49a.79.79,0,0,0,.79.79H10a.79.79,0,0,0,.79-.79H29.73a.79.79,0,0,0,.79.79h4.74a.78.78,0,0,0,.78-.79h2.05L39,31.85l-3.26,2.4L29.5,32.57a.78.78,0,0,0-.74.06.8.8,0,0,0-.35.66v0a.64.64,0,0,0,0,.2,8.68,8.68,0,0,0,3.66,5.07v9.3a.79.79,0,0,0,.79.79h7.89a.8.8,0,0,0,.79-.79v-9.3a8.64,8.64,0,0,0,3.79-8.85h2.52a.79.79,0,0,0,.79-.79V16.32a.8.8,0,0,0-.79-.79ZM4.49,28.16H2.91v-11H4.49Zm4.73.78H6.07V16.32H9.22Zm5.52-26h11v4h-11ZM14,8.43H26.58v3.16H14ZM29.73,28.16H20.56l1.17-2a.78.78,0,0,0-.2-1L19.1,23.34l2.52-2.51L20.5,19.71l-3.16,3.15a.84.84,0,0,0-.23.62.76.76,0,0,0,.32.57L20,26l-1.3,2.17H10.8v-11H14a.78.78,0,0,0,.78-.79V13.17h11v3.15a.79.79,0,0,0,.79.79h3.15Zm1.58-11.84h3.16V23a8.65,8.65,0,0,0-3.16,1.66Zm3.16,12.62H31.31V26.51l3.16.86Zm2.92-.78H36v-.38l1.35.37Zm3,9.29a.79.79,0,0,0-.39.68v9H33.68v-9a.78.78,0,0,0-.4-.68,7.11,7.11,0,0,1-2.81-3l5.24,1.41a.8.8,0,0,0,.67-.13l4.07-3a.78.78,0,0,0,.26-1l-2-4.62a.83.83,0,0,0-.52-.45L33,25.33a7.1,7.1,0,1,1,7.38,12.12Zm6.71-9.29H44.91a8.7,8.7,0,0,0-8.08-5.53c-.26,0-.53,0-.79,0V17.11H47.09Zm0,0"/><path class="cls-1" d="M21.14,31.74c-.39.76-1.66,3.32-1.66,4.3a2.37,2.37,0,1,0,4.73,0c0-1-1.27-3.54-1.66-4.3a.83.83,0,0,0-1.41,0Zm.7,5.09a.78.78,0,0,1-.78-.79,9.73,9.73,0,0,1,.78-2.13A9.28,9.28,0,0,1,22.63,36a.79.79,0,0,1-.79.79Zm0,0"/><path class="cls-1" d="M17,35.68a.81.81,0,0,0-.7-.39.84.84,0,0,0-.7.39C15.23,36.44,14,39,14,40a2.37,2.37,0,1,0,4.73,0c0-1-1.28-3.55-1.67-4.31Zm-.7,5.1a.8.8,0,0,1-.79-.79,9.4,9.4,0,0,1,.79-2.13A9.4,9.4,0,0,1,17.11,40a.79.79,0,0,1-.79.79Zm0,0"/><path class="cls-1" d="M20.35,39.63c-.39.76-1.66,3.32-1.66,4.3a2.37,2.37,0,1,0,4.73,0c0-1-1.27-3.54-1.66-4.3a.82.82,0,0,0-1.41,0Zm.71,5.09a.79.79,0,0,1-.79-.79,9.11,9.11,0,0,1,.79-2.13,9.55,9.55,0,0,1,.78,2.13.78.78,0,0,1-.78.79Zm0,0"/></svg>