<svg id="Layer_1" data-name="Layer 1" xmlns="http://www.w3.org/2000/svg" viewBox="0 0 50 50"><defs><style>.cls-1{fill:#a0a0a0;}</style></defs><title>3rd-sec-icon10</title><path class="cls-1" d="M32.43,46.6H31.37l-1.21-2.34a3,3,0,0,0-2.66-1.62h-5a3,3,0,0,0-2.66,1.62L18.63,46.6H17.57a.67.67,0,0,0,0,1.34h7.22a.67.67,0,0,0,0-1.34H20.14L21,44.88A1.65,1.65,0,0,1,22.5,44h5a1.65,1.65,0,0,1,1.47.89l.88,1.72H28.51a.67.67,0,0,0,0,1.34h3.92a.67.67,0,0,0,0-1.34Zm0,0"/><path class="cls-1" d="M13.92,7.5H7.79a.67.67,0,0,0-.67.68v6.13a.67.67,0,0,0,1.34,0V8.85h5.46a.68.68,0,0,0,0-1.35Zm0,0"/><path class="cls-1" d="M42.21,7.5H36.08a.68.68,0,0,0,0,1.35h5.46v5.46a.67.67,0,0,0,1.34,0V8.18a.67.67,0,0,0-.67-.68Zm0,0"/><path class="cls-1" d="M42.21,35.82a.67.67,0,0,0-.67.67V42H36.08a.67.67,0,0,0,0,1.34h6.13a.67.67,0,0,0,.67-.67V36.49a.67.67,0,0,0-.67-.67Zm0,0"/><path class="cls-1" d="M13.92,42H8.46V36.49a.67.67,0,0,0-1.34,0v6.14a.67.67,0,0,0,.67.67h6.13a.67.67,0,0,0,0-1.34Zm0,0"/><path class="cls-1" d="M30.1,26a.24.24,0,0,1-.09-.2V14.57a4.86,4.86,0,1,0-9.72.07v1.3a.67.67,0,0,0,1.34,0v-1.3a3.52,3.52,0,1,1,7-.07V25.76A1.56,1.56,0,0,0,29.31,27,7,7,0,1,1,21,27a1.58,1.58,0,0,0,.64-1.28V19.53a.67.67,0,0,0-1.34,0v6.23a.27.27,0,0,1-.09.2,8.37,8.37,0,1,0,9.9,0Zm0,0"/><path class="cls-1" d="M25.15,17.87a2.07,2.07,0,0,0-2.07,2.07v7.58a5.59,5.59,0,1,0,4.14,0V19.94a2.07,2.07,0,0,0-2.07-2.07ZM29.4,32.71a4.24,4.24,0,1,1-5.46-4.07.66.66,0,0,0,.49-.64V19.94a.72.72,0,0,1,1.44,0V28a.67.67,0,0,0,.48.64,4.27,4.27,0,0,1,3,4.07Zm0,0"/><path class="cls-1" d="M22,7.16a.67.67,0,0,0,.95.95,3.07,3.07,0,0,1,4.33,0,.68.68,0,0,0,1,0,.66.66,0,0,0,0-.95,4.42,4.42,0,0,0-6.23,0Zm0,0"/><path class="cls-1" d="M20.54,5.3a6.54,6.54,0,0,1,9.22,0,.67.67,0,0,0,.95-1,7.88,7.88,0,0,0-11.12,0,.67.67,0,1,0,.95,1Zm0,0"/></svg>