<svg id="Layer_1" data-name="Layer 1" xmlns="http://www.w3.org/2000/svg" viewBox="0 0 50 50"><defs><style>.cls-1{fill:#a0a0a0;}</style></defs><title>3rd-sec-icon9</title><path class="cls-1" d="M46.28,11.39a.86.86,0,0,0,.86-.86V7a.85.85,0,0,0-.86-.86H36.21a6.07,6.07,0,0,0-3.83,1.18,5,5,0,0,0-1.77,4.12v2.46H30.4a.87.87,0,0,0-.87.87v3.69H27.9v-.24a1.63,1.63,0,0,0-1.64-1.64H23.87a1.64,1.64,0,0,0-1.65,1.64v.24H20V17.26a2.92,2.92,0,0,0-2.92-2.91H14.91A2.91,2.91,0,0,0,12,17.26v1.22a10,10,0,0,0,0,19.93v3.73H3.75a.88.88,0,0,0-.89.81.87.87,0,0,0,.86.93H46.25a.88.88,0,0,0,.89-.81.87.87,0,0,0-.86-.93h-27V38.45h2.91v.23a1.65,1.65,0,0,0,1.65,1.65h2.39a1.64,1.64,0,0,0,1.64-1.65v-.23H40a.86.86,0,0,0,.86-.87V34h5.4a.86.86,0,0,0,.86-.86V23.77a.86.86,0,0,0-.86-.87h-5.4V19.31a.85.85,0,0,0-.86-.86H37.28V14.76a.86.86,0,0,0-.86-.87H36.2V11.62a.24.24,0,0,1,.21-.22ZM13.73,17.26a1.18,1.18,0,0,1,1.18-1.18h2.16a1.18,1.18,0,0,1,1.19,1.18v1.19H13.73Zm3.85,24.88H13.72V38.45h3.86Zm-4.73-5.42a8.27,8.27,0,0,1,0-16.54h9.37V36.72ZM45.41,24.63v7.63H40.88V24.63Zm-6.26,8.5v3.59H27.9V32.33a.87.87,0,1,0-1.73,0V38.6H24V18.3h2.22v6.26a.87.87,0,0,0,1.73,0V20.18H39.15v13ZM31.26,18.45V15.62h4.29v2.83ZM35,10.21a2.18,2.18,0,0,0-.5,1.63v2.05H32.34V11.43c0-3,2.11-3.57,3.87-3.57h9.2v1.8H36.63a2.22,2.22,0,0,0-1.66.54Zm0,0"/><path class="cls-1" d="M19.17,27.58H16.9a.87.87,0,1,0,0,1.73h2.27a.87.87,0,1,0,0-1.73Zm0,0"/><path class="cls-1" d="M19.17,23.26H16.9a.87.87,0,1,0,0,1.73h2.27a.87.87,0,1,0,0-1.73Zm0,0"/><path class="cls-1" d="M19.17,31.91H16.9a.87.87,0,1,0,0,1.73h2.27a.87.87,0,1,0,0-1.73Zm0,0"/><path class="cls-1" d="M27,27.58a.86.86,0,0,0-.87.86h0a.87.87,0,1,0,1.73,0,.85.85,0,0,0-.86-.86Zm0,0"/></svg>