<?xml version="1.0" encoding="utf-8"?>
<!-- Generator: Adobe Illustrator 22.1.0, SVG Export Plug-In . SVG Version: 6.00 Build 0)  -->
<svg version="1.1" id="Interface" xmlns="http://www.w3.org/2000/svg" xmlns:xlink="http://www.w3.org/1999/xlink" x="0px" y="0px"
	 viewBox="0 0 50 50" style="enable-background:new 0 0 50 50;" xml:space="preserve">
<style type="text/css">
	.st0{fill:none;stroke:#00A03B;stroke-width:2;stroke-linecap:round;stroke-linejoin:round;}
</style>
<title>4h-sec-icon</title>
<g id="interface-validation-check-4">
	<path class="st0" d="M28.5,3.6l2,2.4c1,1.1,2.4,1.8,3.9,1.6l3.1-0.3c2.6-0.2,4.8,1.7,5,4.3c0,0.2,0,0.5,0,0.7l-0.3,3.1
		c-0.1,1.5,0.5,3,1.7,3.9l2.4,2c2,1.7,2.2,4.6,0.5,6.5c-0.2,0.2-0.3,0.4-0.5,0.5l-2.4,2c-1.1,1-1.8,2.4-1.6,3.9l0.3,3.1
		c0.2,2.6-1.7,4.8-4.3,5c-0.2,0-0.5,0-0.7,0l-3.1-0.3c-1.5-0.1-3,0.5-3.9,1.7l-2,2.4c-1.7,2-4.6,2.2-6.5,0.5
		c-0.2-0.2-0.4-0.3-0.5-0.5l-2-2.4c-1-1.1-2.4-1.8-3.9-1.6l-3.1,0.3c-2.6,0.2-4.8-1.7-5-4.3c0-0.2,0-0.5,0-0.7l0.3-3.1
		c0.1-1.5-0.5-3-1.7-3.9l-2.4-2c-2-1.7-2.2-4.6-0.5-6.5c0.2-0.2,0.3-0.4,0.5-0.5l2.4-2c1.1-1,1.8-2.4,1.6-3.9l-0.2-3.2
		c-0.2-2.6,1.7-4.8,4.3-5c0.2,0,0.5,0,0.7,0l3.1,0.3c1.5,0.1,3-0.5,3.9-1.7l2-2.4c1.7-2,4.6-2.2,6.5-0.5C28.2,3.2,28.4,3.4,28.5,3.6
		z"/>
	<polyline class="st0" points="33.5,18.9 22.4,31.1 16.5,24.6 	"/>
</g>
</svg>
